<svg width="3158" height="2390" viewBox="0 0 3158 2390" fill="none" xmlns="http://www.w3.org/2000/svg">
<g clip-path="url(#clip0_2870_217)">
<rect width="3157" height="2389" fill="#FBD100"/>
<path d="M0 1194.67V2389.33H1578.67H3157.33V1194.67V-0.000488281H1578.67H0V1194.67ZM1620.27 525.866C1635.33 530 1648.93 536.133 1670 548.133C1681.73 554.933 1695.2 562.666 1700 565.333C1704.8 568 1716.8 574.933 1726.67 580.533C1736.53 586.266 1752.8 595.466 1762.67 601.066C1772.53 606.533 1782.13 612.133 1784 613.333C1785.87 614.533 1790.67 617.466 1794.67 619.6C1798.67 621.866 1809.47 628 1818.67 633.333C1843.07 647.6 1850.8 652 1851.6 652C1852 652 1853.87 653.066 1855.73 654.533C1857.73 655.866 1862.4 658.666 1866 660.666C1869.73 662.666 1881.07 669.066 1891.33 675.066C1933.73 699.333 1947.2 707.066 1970.67 720.4C1984.27 728.133 1999.87 736.933 2005.33 740.133C2010.8 743.2 2020.8 748.933 2027.33 752.8C2034 756.666 2045.07 763.066 2052 767.066C2077.07 781.733 2083.47 786.133 2094 796.666C2110.4 812.8 2119.73 828.266 2125.6 848.666L2128.67 859.333V1116V1372.67L2125.6 1383.07C2117.6 1411.07 2098.13 1436.67 2072.53 1453.07C2060.93 1460.53 2041.6 1472.13 2024.67 1482C2005.47 1493.07 1958.27 1520.13 1953.33 1522.93C1950 1524.8 1936.27 1532.8 1922.67 1540.67C1909.07 1548.53 1895.87 1556.13 1893.33 1557.6C1890.8 1559.07 1884.53 1562.67 1879.33 1565.73C1874.27 1568.67 1864.4 1574.27 1857.73 1578.27C1840.93 1587.87 1825.6 1596.8 1793.33 1615.6C1763.73 1632.93 1720.8 1657.87 1706.27 1666.13C1701.2 1668.93 1694.53 1672.8 1691.47 1674.67C1688.4 1676.53 1677.47 1682.67 1667.2 1688.53C1657.07 1694.27 1647.2 1700 1645.33 1701.33C1639.47 1705.33 1624 1712.13 1614.8 1714.8C1609.47 1716.4 1599.6 1717.73 1589.87 1718.27C1575.87 1718.93 1571.73 1718.67 1560.93 1716.13C1548.93 1713.33 1529.07 1704.93 1520.4 1698.93C1518.27 1697.47 1512.53 1694 1507.33 1691.07C1502.27 1688 1491.07 1681.6 1482.67 1676.67C1474.27 1671.6 1464.93 1666.27 1462 1664.67C1455.87 1661.33 1451.87 1659.07 1430.67 1646.67C1406 1632.27 1390.4 1623.33 1384 1619.73C1372.4 1613.33 1332.53 1590.27 1324.67 1585.33C1320.27 1582.53 1303.73 1572.93 1288 1564C1272.27 1555.07 1255.6 1545.33 1251.07 1542.53C1246.53 1539.6 1242.4 1537.33 1241.87 1537.33C1241.2 1537.33 1230.27 1531.07 1218.67 1524C1217.6 1523.33 1207.73 1517.6 1196.67 1511.2C1167.33 1494.13 1161.2 1490.53 1156 1487.33C1153.47 1485.73 1142.67 1479.33 1132.13 1473.2C1083.6 1445.2 1063.6 1422.4 1053.87 1384.53L1050.67 1371.33L1051.07 1119.33C1051.47 846.266 1051.07 862.133 1058.4 841.333C1063.47 826.933 1076.4 807.6 1089.07 795.2C1099.2 785.333 1108.93 778.4 1130.67 766C1140.53 760.4 1154.13 752.533 1160.67 748.666C1174.93 740.4 1214.13 717.733 1222.67 713.066C1226 711.2 1232.27 707.6 1236.67 705.066C1292.4 672.8 1336.8 647.333 1362.67 632.8C1392.27 616 1410.27 605.6 1422 598.666C1427.87 595.2 1438.13 589.333 1444.67 585.6C1451.33 582 1464.13 574.533 1473.33 569.2C1531.07 535.6 1542.8 530.133 1566.93 524.666C1577.87 522.133 1609.47 522.8 1620.27 525.866Z" fill="#3C0366"/>
<path d="M1575.33 693.066C1566.53 698.133 1546.8 709.466 1531.6 718.4C1516.4 727.333 1503.6 734.666 1503.33 734.666C1503.07 734.666 1497.33 738 1490.67 742C1484 746 1478.4 749.333 1478.13 749.333C1477.87 749.333 1468.8 754.533 1457.87 760.8C1446.93 767.066 1433.2 774.933 1427.33 778.266C1421.47 781.6 1414.93 785.466 1412.67 786.933C1407.87 789.866 1345.07 825.733 1321.33 839.066C1312.13 844.133 1303.07 849.466 1301.07 850.8C1299.2 852.266 1297.2 853.333 1296.8 853.333C1296.27 853.333 1293.73 854.8 1290.93 856.4C1286.4 859.333 1283.73 860.933 1267.07 870.266C1263.47 872.133 1253.47 877.866 1244.67 883.066C1235.87 888.133 1226.27 893.733 1223.33 895.333C1220.4 897.066 1216.8 900 1215.33 902C1212.67 905.466 1212.67 907.6 1212.67 1120.67V1335.73L1216 1339.47C1220.27 1344 1230.4 1350.53 1261.33 1368.67C1274.93 1376.53 1297.73 1389.87 1312 1398.4C1354.13 1423.2 1367.2 1430.8 1396 1447.33C1411.07 1456 1426 1464.67 1429.33 1466.67C1437.87 1472 1544.13 1533.73 1564.13 1545.07C1573.47 1550.4 1581.87 1554.67 1583.07 1554.67C1584.27 1554.67 1587.2 1553.6 1589.6 1552.13C1601.33 1545.6 1617.2 1536.53 1636 1525.73C1647.33 1519.07 1659.33 1512.27 1662.67 1510.4C1666 1508.53 1680.93 1500 1696 1491.33C1711.07 1482.67 1727.87 1473.2 1733.33 1470C1738.8 1466.93 1768.27 1450.13 1798.67 1432.67C1829.07 1415.2 1857.87 1398.67 1862.67 1396C1867.47 1393.2 1875.2 1388.8 1880 1386C1884.8 1383.33 1891.33 1379.47 1894.67 1377.6C1898 1375.73 1906.4 1370.93 1913.33 1366.93C1920.27 1362.93 1933.33 1355.33 1942.4 1350.13C1966.4 1336.4 1970.67 1332.8 1974.67 1323.33L1978 1315.33V1118C1978 929.733 1977.87 920.266 1975.47 912.666C1971.47 899.733 1974.4 901.6 1883.33 849.066C1869.47 840.933 1854.67 832.533 1850.67 830.266C1846.67 828 1839.47 823.866 1834.67 820.933C1829.87 818 1821.47 813.066 1816 810C1810.53 806.933 1795.2 798.133 1782 790.4C1768.8 782.8 1751.47 772.666 1743.33 768.133C1719.47 754.4 1712.13 750.133 1696.67 741.066C1683.47 733.333 1672.93 727.2 1646.4 711.866C1641.73 709.2 1629.07 701.866 1618 695.6C1607.07 689.2 1596.53 684 1594.67 684C1592.8 684.133 1584.13 688.133 1575.33 693.066ZM1482.4 954.133C1506.67 959.066 1526.27 970 1542.67 987.6C1557.87 1003.73 1565.87 1018.8 1570 1038.53C1575.6 1065.2 1568.4 1096.4 1550.53 1123.47C1536.93 1144 1523.87 1157.87 1474.4 1204.53C1463.47 1214.8 1454.67 1223.6 1454.67 1224.27C1454.67 1224.8 1482.93 1225.33 1517.33 1225.33H1580V1254.67V1284L1464.4 1283.73L1348.67 1283.33L1348.27 1279.33C1348 1277.07 1348.13 1267.2 1348.67 1257.33L1349.6 1239.47L1355.2 1234C1358.13 1231.07 1372.4 1218.13 1386.67 1205.47C1430 1166.8 1466.27 1131.73 1479.47 1116C1486.93 1107.07 1495.07 1093.73 1498.8 1084.67C1501.47 1077.87 1502 1074.4 1502 1062C1502 1048.67 1501.73 1046.67 1498.4 1040.53C1492.93 1030.13 1489.07 1026.27 1479.2 1021.2C1470.8 1017.07 1469.2 1016.67 1458 1016.8C1443.33 1016.8 1433.07 1020.4 1424.4 1028.4C1416.8 1035.33 1413.87 1040.4 1411.33 1050.8C1408.53 1061.73 1406 1064 1396.13 1064C1392 1064 1383.73 1064.67 1377.73 1065.33C1371.6 1066.13 1361.73 1067.2 1355.73 1068C1348.4 1068.8 1344.53 1068.8 1344.27 1068C1344 1067.2 1342.93 1066.67 1341.87 1066.67C1337.6 1066.67 1341.73 1033.73 1348.13 1018.53C1361.33 986.266 1391.47 962.533 1429.07 954.666C1444 951.466 1468.53 951.2 1482.4 954.133ZM1754 955.2C1787.73 961.2 1817.33 980.4 1834.27 1007.2C1839.07 1014.8 1847.73 1032.4 1851.33 1041.87C1863.73 1074.8 1867.73 1139.2 1859.87 1176.67C1846 1242 1810.93 1281.73 1759.2 1290.8C1746.53 1292.93 1716.4 1291.6 1704.67 1288.27C1656.93 1274.93 1624.8 1235.6 1613.33 1176.67C1608.13 1149.47 1606.67 1120.67 1609.33 1096.67C1615.6 1040.8 1632.93 1003.73 1664.67 978.667C1675.47 970.133 1682.93 966 1696 961.2C1716.53 953.733 1734.93 951.866 1754 955.2Z" fill="#3C0366"/>
<path d="M1723.07 1019.2C1691.47 1029.47 1676 1064 1676 1124.67C1676 1170.27 1682.93 1197.33 1699.2 1214.4C1707.73 1223.47 1714.4 1227.33 1725.73 1230C1736.93 1232.53 1747.33 1231.07 1759.47 1225.33C1775.2 1217.73 1787.07 1199.87 1793.6 1173.87C1796.4 1162.93 1796.67 1159.2 1796.53 1126C1796.4 1094.67 1796.13 1088.4 1793.6 1077.33C1790 1060.53 1786.27 1051.07 1779.87 1041.47C1773.2 1031.47 1768.4 1027.33 1757.47 1022.27C1747.33 1017.47 1732.4 1016.13 1723.07 1019.2Z" fill="#3C0366"/>
</g>
<defs>
<clipPath id="clip0_2870_217">
<rect width="3157.33" height="2389.33" fill="white"/>
</clipPath>
</defs>
</svg>
